<svg width="420" height="315" viewBox="0 0 420 315" fill="none" xmlns="http://www.w3.org/2000/svg">
<path d="M419.5 209.5H315.5V105.5H419.5V209.5ZM314.5 105.5V209.5H210.5V105.5H314.5ZM210.5 210.5H314.5V314.5H210.5V210.5ZM209.5 105.5V209.5H105.5V105.5H209.5ZM105.5 210.5H209.5V314.5H105.5V210.5ZM104.5 105.5V209.5H0.5V105.5H104.5ZM0.5 210.5H104.5V314.5H0.5V210.5ZM104.5 104.5H0.5V0.5H104.5V104.5ZM105.5 104.5V0.5H209.5V104.5H105.5ZM210.5 104.5V0.5H314.5V104.5H210.5ZM315.5 0.5H419.5V104.5H315.5V0.5ZM315.5 210.5H419.5V314.5H315.5V210.5Z" fill="#E9DAC7" stroke="#1F201A"/>
</svg>
