<svg width="68" height="72" viewBox="0 0 68 72" fill="none" xmlns="http://www.w3.org/2000/svg">
<path d="M23.3268 26.2809C25.139 28.5226 26.8223 30.484 29.0875 30.2037C30.2201 30.0636 31.0988 27.2624 30.2201 25.9573C29.3413 24.6522 28.5212 24.4719 26.3115 22.8951C23.3751 20.7999 20.0267 15.8466 20.593 11.3632C21.1593 6.87992 23.4245 4.63825 25.1234 2.957C26.8223 1.27575 30.2201 0.154919 34.1842 0.154919C38.1483 0.154919 40.8685 0.579602 43.8113 2.957C46.0765 4.78698 48.3417 7.29161 48.3417 12.4841C48.3417 17.6766 44.2525 20.9513 41.5461 22.8951C39.9058 24.0733 38.1483 24.276 37.582 25.9573C37.0157 27.6385 37.582 30.2037 39.2809 30.2037C40.9798 30.2037 41.6438 29.2316 43.3427 26.99C45.0416 24.7483 49.572 21.7976 53.5361 21.7976C58.0665 21.7976 61.6147 23.6275 64.2958 26.2809C65.9947 27.9623 67.1273 30.3524 67.1273 34.8358C67.1273 39.3192 64.8621 43.0934 63.7295 44.2142C62.5969 45.3351 58.0665 48.6975 53.5361 48.1372C49.0057 47.5768 47.3068 45.335 46.1742 44.2142C45.0416 43.0935 43.909 41.4121 42.7763 40.2912C41.6437 39.1704 40.7064 38.0256 39.2809 38.6101C37.8043 39.2155 37.5918 41.3843 38.1483 43.0934C38.7048 44.8025 41.5461 46.4542 43.8113 48.696C46.0765 50.9379 48.3417 52.0585 48.3417 56.9536C48.3417 61.9975 46.6428 65.5085 43.245 68.3102C41.3991 69.8322 36.4494 71.1127 34.7505 71.1127C33.0516 71.1127 28.5212 70.7772 25.1234 68.162C20.0267 64.2391 20.593 59.1953 20.593 56.9536C20.593 54.712 23.4245 50.2287 25.1234 48.5474C26.8223 46.8662 29.6538 44.7747 30.2201 43.0934C30.7864 41.4122 31.3527 38.6101 28.5212 38.6101C26.256 38.6101 24.6482 42.3462 23.3268 44.2142C22.383 45.5219 19.3627 48.1372 14.8323 48.1372C9.16932 48.1372 5.20521 44.7747 3.50631 43.0934C1.80741 41.4122 0.674805 37.4893 0.674805 34.1268C0.674805 30.7643 1.80741 28.5226 3.50631 26.2809C5.20521 24.0392 11.4345 21.2372 14.8323 21.7976C18.2301 22.358 21.0616 23.4788 23.3268 26.2809Z" fill="#00483D"/>
</svg>
