<svg width="70" height="57" viewBox="0 0 70 57" fill="none" xmlns="http://www.w3.org/2000/svg">
<path d="M3.04517 45.1467C-10.3761 33.1661 24.3695 0.00202076 33.5487 3.05176e-05C42.3518 -0.00187818 78.4343 30.8674 67.7144 42.7062C56.1824 54.4127 43.1365 41.847 36.9224 35.9805C35.8443 34.9628 34.1384 39.9339 36.5866 44.4952C38.6673 48.3715 45.379 56.4193 43.9049 56.6989C42.4309 56.9785 35.7681 56.5057 32.9954 56.4091C30.2228 56.3126 24.9216 55.9882 23.4994 56.0615C22.0773 56.1348 27.1106 51.8859 31.1317 44.3504C34.0763 36.2404 31.433 34.8695 30.3657 35.9603C25.0344 41.4087 14.4074 52.7214 3.04517 45.1467Z" fill="#00483D"/>
</svg>
