<svg width="480" height="485" viewBox="0 0 480 485" fill="none" xmlns="http://www.w3.org/2000/svg">
<path d="M250.226 233C238.313 233.604 221.005 241.241 227.158 258.629C234.849 280.363 266.373 275.104 279.185 258.629C292.214 241.875 305.425 198.406 260.184 180.294C231.138 168.666 199.992 180.294 181.917 203.387C169.158 219.688 163.425 264.515 189.155 296.211C218.562 332.435 265.613 331.529 295.472 313.87C325.331 296.211 344.784 265.421 347.499 219.688C350.213 173.955 315.287 136.644 279.185 124.6C252.04 115.544 190.06 114.186 154.772 150.41C119.484 186.633 112.698 229.197 117.675 264.515C122.651 299.833 149.252 342.396 189.155 366.395C224.352 387.562 269.684 389.487 318.544 366.395C367.405 343.302 389.12 299.38 397.264 276.288C405.407 253.195 405.859 203.387 394.549 172.144C383.239 140.901 364.817 112.3 333.022 91.5458C301.226 70.7919 283.226 69.0002 267.226 65.5002C203 60.5002 117.675 81.5 84.5 160C49.7163 242.307 63.6637 303 97.7263 357.5C112.726 381.5 156.862 422.061 210.226 426C271.185 430.5 346.372 433.5 394.549 387.5C442.726 341.5 467.226 267.232 463.726 219.688C460.226 172.144 426.431 89.5002 379.726 60.5002C342.362 37.3002 286.818 17.3625 235.5 16C164.091 14.1042 82.838 46.3211 42.4998 124.6C-6.50016 219.688 24 322.5 50.5001 372.5C76.4517 421.465 127.628 456 154.772 469" stroke="black" stroke-width="31" stroke-linecap="round"/>
</svg>
